<svg width="133" height="21" viewBox="0 0 133 21" fill="none" xmlns="http://www.w3.org/2000/svg">
<path d="M10.5945 1L13.5729 7.39225L20.2333 8.42359L15.4139 13.3965L16.5513 20.4218L10.5945 17.1032L4.63762 20.4218L5.77501 13.3965L0.955566 8.42359L7.61604 7.39225L10.5945 1Z" fill="#F5CB5C" stroke="black" stroke-linecap="round" stroke-linejoin="round"/>
<path d="M38.5472 1L41.5256 7.39225L48.1861 8.42359L43.3667 13.3965L44.504 20.4218L38.5472 17.1032L32.5904 20.4218L33.7278 13.3965L28.9083 8.42359L35.5688 7.39225L38.5472 1Z" fill="#F5CB5C" stroke="black" stroke-linecap="round" stroke-linejoin="round"/>
<path d="M66.5 1L69.4784 7.39225L76.1389 8.42359L71.3194 13.3965L72.4568 20.4218L66.5 17.1032L60.5431 20.4218L61.6805 13.3965L56.8611 8.42359L63.5216 7.39225L66.5 1Z" fill="#F5CB5C" stroke="black" stroke-linecap="round" stroke-linejoin="round"/>
<path d="M94.4528 1L97.4312 7.39225L104.092 8.42359L99.2722 13.3965L100.41 20.4218L94.4528 17.1032L88.496 20.4218L89.6333 13.3965L84.8139 8.42359L91.4744 7.39225L94.4528 1Z" fill="#F5CB5C" stroke="black" stroke-linecap="round" stroke-linejoin="round"/>
<path d="M122.406 1L125.384 7.39225L132.044 8.42359L127.225 13.3965L128.362 20.4218L122.406 17.1032L116.449 20.4218L117.586 13.3965L112.767 8.42359L119.427 7.39225L122.406 1Z" fill="#F2ECDD" stroke="black" stroke-linecap="round" stroke-linejoin="round"/>
</svg>
