<svg width="138" height="21" viewBox="0 0 138 21" fill="none" xmlns="http://www.w3.org/2000/svg">
<path d="M11 1L14.09 7.39225L21 8.42359L16 13.3965L17.18 20.4218L11 17.1032L4.82 20.4218L6 13.3965L1 8.42359L7.91 7.39225L11 1Z" fill="#F5CB5C" stroke="black" stroke-linecap="round" stroke-linejoin="round"/>
<path d="M40 1L43.09 7.39225L50 8.42359L45 13.3965L46.18 20.4218L40 17.1032L33.82 20.4218L35 13.3965L30 8.42359L36.91 7.39225L40 1Z" fill="#F5CB5C" stroke="black" stroke-linecap="round" stroke-linejoin="round"/>
<path d="M69 1L72.09 7.39225L79 8.42359L74 13.3965L75.18 20.4218L69 17.1032L62.82 20.4218L64 13.3965L59 8.42359L65.91 7.39225L69 1Z" fill="#F5CB5C" stroke="black" stroke-linecap="round" stroke-linejoin="round"/>
<path d="M98 1L101.09 7.39225L108 8.42359L103 13.3965L104.18 20.4218L98 17.1032L91.82 20.4218L93 13.3965L88 8.42359L94.91 7.39225L98 1Z" fill="#F5CB5C" stroke="black" stroke-linecap="round" stroke-linejoin="round"/>
<path d="M127 1L130.09 7.39225L137 8.42359L132 13.3965L133.18 20.4218L127 17.1032L120.82 20.4218L122 13.3965L117 8.42359L123.91 7.39225L127 1Z" fill="#F5CB5C" stroke="black" stroke-linecap="round" stroke-linejoin="round"/>
</svg>
