<svg width="133" height="21" viewBox="0 0 133 21" fill="none" xmlns="http://www.w3.org/2000/svg">
<path d="M10.9167 1L13.878 7.39225L20.5 8.42359L15.7084 13.3965L16.8392 20.4218L10.9167 17.1032L4.99421 20.4218L6.12504 13.3965L1.33337 8.42359L7.95546 7.39225L10.9167 1Z" fill="#F5CB5C" stroke="black" stroke-linecap="round" stroke-linejoin="round"/>
<path d="M38.7083 1L41.6696 7.39225L48.2917 8.42359L43.5 13.3965L44.6308 20.4218L38.7083 17.1032L32.7858 20.4218L33.9167 13.3965L29.125 8.42359L35.7471 7.39225L38.7083 1Z" fill="#F5CB5C" stroke="black" stroke-linecap="round" stroke-linejoin="round"/>
<path d="M66.5 1L69.4612 7.39225L76.0833 8.42359L71.2916 13.3965L72.4225 20.4218L66.5 17.1032L60.5775 20.4218L61.7083 13.3965L56.9166 8.42359L63.5387 7.39225L66.5 1Z" fill="#F5CB5C" stroke="black" stroke-linecap="round" stroke-linejoin="round"/>
<path d="M94.2917 1L97.253 7.39225L103.875 8.42359L99.0834 13.3965L100.214 20.4218L94.2917 17.1032L88.3692 20.4218L89.5 13.3965L84.7084 8.42359L91.3305 7.39225L94.2917 1Z" fill="#F5CB5C" stroke="black" stroke-linecap="round" stroke-linejoin="round"/>
<path d="M122.083 1L125.045 7.39225L131.667 8.42359L126.875 13.3965L128.006 20.4218L122.083 17.1032L116.161 20.4218L117.292 13.3965L112.5 8.42359L119.122 7.39225L122.083 1Z" fill="#F5CB5C" stroke="black" stroke-linecap="round" stroke-linejoin="round"/>
</svg>
