<svg width="133" height="20" viewBox="0 0 133 20" fill="none" xmlns="http://www.w3.org/2000/svg">
<path d="M10.5945 0.612793L13.5729 6.82871L20.2333 7.8316L15.4139 12.6673L16.5513 19.4988L10.5945 16.2717L4.63762 19.4988L5.77501 12.6673L0.955566 7.8316L7.61604 6.82871L10.5945 0.612793Z" fill="#F5CB5C" stroke="black" stroke-linecap="round" stroke-linejoin="round"/>
<path d="M38.5471 0.612793L41.5255 6.82871L48.186 7.8316L43.3665 12.6673L44.5039 19.4988L38.5471 16.2717L32.5903 19.4988L33.7276 12.6673L28.9082 7.8316L35.5687 6.82871L38.5471 0.612793Z" fill="#F5CB5C" stroke="black" stroke-linecap="round" stroke-linejoin="round"/>
<path d="M66.5002 0.612793L69.4786 6.82871L76.1391 7.8316L71.3197 12.6673L72.4571 19.4988L66.5002 16.2717L60.5434 19.4988L61.6808 12.6673L56.8613 7.8316L63.5218 6.82871L66.5002 0.612793Z" fill="#F5CB5C" stroke="black" stroke-linecap="round" stroke-linejoin="round"/>
<path d="M94.4529 0.612793L97.4313 6.82871L104.092 7.8316L99.2723 12.6673L100.41 19.4988L94.4529 16.2717L88.496 19.4988L89.6334 12.6673L84.814 7.8316L91.4744 6.82871L94.4529 0.612793Z" fill="#F5CB5C" stroke="black" stroke-linecap="round" stroke-linejoin="round"/>
<path d="M122.405 0.612793L125.384 6.82871L132.044 7.8316L127.225 12.6673L128.362 19.4988L122.405 16.2717L116.449 19.4988L117.586 12.6673L112.767 7.8316L119.427 6.82871L122.405 0.612793Z" fill="#F2ECDD" stroke="black" stroke-linecap="round" stroke-linejoin="round"/>
</svg>
