<svg width="133" height="20" viewBox="0 0 133 20" fill="none" xmlns="http://www.w3.org/2000/svg">
<path d="M10.9168 0.612793L13.8781 6.82871L20.5002 7.8316L15.7085 12.6673L16.8393 19.4988L10.9168 16.2717L4.99433 19.4988L6.12516 12.6673L1.3335 7.8316L7.95558 6.82871L10.9168 0.612793Z" fill="#F5CB5C" stroke="black" stroke-linecap="round" stroke-linejoin="round"/>
<path d="M38.7083 0.612793L41.6696 6.82871L48.2917 7.8316L43.5 12.6673L44.6308 19.4988L38.7083 16.2717L32.7858 19.4988L33.9167 12.6673L29.125 7.8316L35.7471 6.82871L38.7083 0.612793Z" fill="#F5CB5C" stroke="black" stroke-linecap="round" stroke-linejoin="round"/>
<path d="M66.5001 0.612793L69.4613 6.82871L76.0834 7.8316L71.2917 12.6673L72.4226 19.4988L66.5001 16.2717L60.5776 19.4988L61.7084 12.6673L56.9167 7.8316L63.5388 6.82871L66.5001 0.612793Z" fill="#F5CB5C" stroke="black" stroke-linecap="round" stroke-linejoin="round"/>
<path d="M94.2918 0.612793L97.2531 6.82871L103.875 7.8316L99.0835 12.6673L100.214 19.4988L94.2918 16.2717L88.3693 19.4988L89.5002 12.6673L84.7085 7.8316L91.3306 6.82871L94.2918 0.612793Z" fill="#F5CB5C" stroke="black" stroke-linecap="round" stroke-linejoin="round"/>
<path d="M122.083 0.612793L125.045 6.82871L131.667 7.8316L126.875 12.6673L128.006 19.4988L122.083 16.2717L116.161 19.4988L117.292 12.6673L112.5 7.8316L119.122 6.82871L122.083 0.612793Z" fill="#F5CB5C" stroke="black" stroke-linecap="round" stroke-linejoin="round"/>
</svg>
