<svg width="98" height="100" viewBox="0 0 98 100" fill="none" xmlns="http://www.w3.org/2000/svg">
<g filter="url(#filter0_d_90_879)">
<path d="M46.9194 2.08448C47.5055 0.215858 50.15 0.215858 50.7361 2.08448L53.3173 10.3143C53.8024 11.861 55.8294 12.2184 56.8142 10.9309L62.0545 4.08022C63.2443 2.52474 65.7294 3.42922 65.641 5.3856L65.2518 14.0019C65.1786 15.6212 66.9611 16.6503 68.3269 15.7774L75.5942 11.1321C77.2443 10.0774 79.2701 11.7772 78.518 13.5854L75.2053 21.549C74.5827 23.0456 75.9057 24.6223 77.4877 24.2691L85.9055 22.3896C87.8169 21.9628 89.1391 24.253 87.8139 25.6949L81.9772 32.0452C80.8804 33.2386 81.5843 35.1728 83.1917 35.3819L91.7447 36.4948C93.6867 36.7475 94.1459 39.3518 92.4075 40.2535L84.7509 44.2246C83.312 44.9709 83.312 47.0291 84.7509 47.7754L92.4075 51.7465C94.146 52.6482 93.6867 55.2525 91.7447 55.5052L83.1917 56.6181C81.5843 56.8272 80.8804 58.7614 81.9772 59.9548L87.8139 66.3051C89.1391 67.747 87.8169 70.0372 85.9055 69.6104L77.4877 67.7309C75.9057 67.3777 74.5827 68.9544 75.2053 70.451L78.518 78.4146C79.2702 80.2228 77.2443 81.9226 75.5942 80.8679L68.3269 76.2226C66.9611 75.3497 65.1786 76.3788 65.2518 77.9981L65.641 86.6144C65.7294 88.5708 63.2443 89.4753 62.0545 87.9198L56.8142 81.0691C55.8294 79.7816 53.8024 80.139 53.3173 81.6857L50.7361 89.9155C50.15 91.7841 47.5055 91.7841 46.9194 89.9155L44.3382 81.6857C43.8531 80.139 41.8261 79.7816 40.8413 81.0691L35.601 87.9198C34.4112 89.4753 31.9261 88.5708 32.0145 86.6144L32.4037 77.9981C32.4769 76.3788 30.6944 75.3497 29.3286 76.2226L22.0613 80.8679C20.4112 81.9226 18.3854 80.2228 19.1375 78.4146L22.4503 70.451C23.0728 68.9544 21.7498 67.3777 20.1678 67.7309L11.75 69.6104C9.83866 70.0372 8.5164 67.747 9.84164 66.3051L15.6783 59.9548C16.7752 58.7614 16.0712 56.8272 14.4638 56.6181L5.91079 55.5052C3.96879 55.2525 3.50957 52.6482 5.24804 51.7465L12.9046 47.7754C14.3435 47.0291 14.3435 44.9709 12.9046 44.2246L5.24803 40.2535C3.50957 39.3518 3.96879 36.7475 5.9108 36.4948L14.4638 35.3819C16.0712 35.1728 16.7752 33.2386 15.6783 32.0452L9.84163 25.6949C8.5164 24.253 9.83866 21.9628 11.75 22.3896L20.1678 24.2691C21.7498 24.6223 23.0728 23.0456 22.4503 21.549L19.1375 13.5854C18.3854 11.7772 20.4112 10.0774 22.0613 11.1321L29.3286 15.7774C30.6944 16.6503 32.4769 15.6212 32.4037 14.0019L32.0145 5.3856C31.9261 3.42922 34.4112 2.52474 35.601 4.08022L40.8413 10.9309C41.8261 12.2184 43.8531 11.861 44.3382 10.3143L46.9194 2.08448Z" fill="#CD9C20"/>
</g>
<defs>
<filter id="filter0_d_90_879" x="0.16748" y="0.683105" width="97.3206" height="98.6338" filterUnits="userSpaceOnUse" color-interpolation-filters="sRGB">
<feFlood flood-opacity="0" result="BackgroundImageFix"/>
<feColorMatrix in="SourceAlpha" type="matrix" values="0 0 0 0 0 0 0 0 0 0 0 0 0 0 0 0 0 0 127 0" result="hardAlpha"/>
<feOffset dy="4"/>
<feGaussianBlur stdDeviation="2"/>
<feComposite in2="hardAlpha" operator="out"/>
<feColorMatrix type="matrix" values="0 0 0 0 0 0 0 0 0 0 0 0 0 0 0 0 0 0 0.25 0"/>
<feBlend mode="normal" in2="BackgroundImageFix" result="effect1_dropShadow_90_879"/>
<feBlend mode="normal" in="SourceGraphic" in2="effect1_dropShadow_90_879" result="shape"/>
</filter>
</defs>
</svg>
